<svg xmlns="http://www.w3.org/2000/svg" viewBox="0 0 1640 1377" font-family="Segoe UI, Noto Sans KR, Arial, sans-serif">
  <defs>
    <marker id="arrow" markerWidth="10" markerHeight="10" refX="8" refY="3" orient="auto" markerUnits="strokeWidth"><path d="M0,0 L9,3 L0,6 Z" fill="#475569"/></marker>
    <marker id="arrowlite" markerWidth="10" markerHeight="10" refX="8" refY="3" orient="auto" markerUnits="strokeWidth"><path d="M0,0 L9,3 L0,6 Z" fill="#94a3b8"/></marker>
    <style>
    .bg{fill:#f8fafc}
    .title{fill:#0f172a;font-size:30px;font-weight:800}
    .subtitle{fill:#475569;font-size:15px}
    .band{fill:#f1f5f9;stroke:#cbd5e1}
    .lane{fill:#94a3b8;font-size:13px;font-weight:800;letter-spacing:.06em}
    .h{fill:#0f172a;font-size:17px;font-weight:800}
    .t{fill:#334155;font-size:13px}
    .m{fill:#64748b;font-size:12px;font-style:italic}
    .note{fill:#7f1d1d;font-size:12.5px;font-weight:700}
    .flow{stroke:#475569;stroke-width:2.4;fill:none;marker-end:url(#arrow)}
    .dash{stroke:#94a3b8;stroke-width:2;fill:none;stroke-dasharray:7 6;marker-end:url(#arrowlite)}
    .badge{fill:#fff;font-size:12.5px;font-weight:800;text-anchor:middle}
    .foot{fill:#475569;font-size:13px}
    </style>
  </defs>

  <rect class="bg" x="0" y="0" width="1640" height="1377"/>
  <text class="title" x="52" y="52">Ontology and GNN layers</text>
  <text class="subtitle" x="52" y="79">How symbolic knowledge and the fixed-shape temporal R-GCN are stacked, and where the deterministic authority boundary sits.</text>

  <rect class="band" x="38" y="110" width="846" height="1063" rx="18"/>
  <text class="lane" x="62" y="136">ONTOLOGY STACK — CPU, EXPLAINABLE, ADVISORY</text>
  <rect class="band" x="950" y="110" width="652" height="1063" rx="18"/>
  <text class="lane" x="974" y="136">STRATEGY-UTILITY GNN — FIXED SHAPE, SHADOW ONLY</text>
  <rect x="62" y="156" width="798" height="132" rx="12" fill="#ecfdf5" stroke="#10b981" stroke-width="1.8"/>
  <text class="h" x="82" y="188">L0 · Evidence and facts</text>
  <text class="t" x="82" y="211">KIS realtime ticks / orderbooks / session, account and cash snapshot,</text>
  <text class="t" x="82" y="230">broker quotes, news / RSS / DART events, macro and sector snapshots.</text>
  <text class="t" x="82" y="249">Every assertion carries source, timestamp, quality, synthetic and stale flags.</text>
  <text class="m" x="82" y="276">app.data.source_policy · app.features.feature_provenance</text>
  <rect x="62" y="310" width="798" height="113" rx="12" fill="#eff6ff" stroke="#3b82f6" stroke-width="1.8"/>
  <text class="h" x="82" y="342">L1 · Working triple store</text>
  <text class="t" x="82" y="365">In-memory (subject, predicate, object, evidence_id) graph, plus a compact</text>
  <text class="t" x="82" y="384">integer-id fact table with validity windows for hot-path lookups.</text>
  <text class="m" x="82" y="411">graph.knowledge_graph.KnowledgeGraph · graph.fact_table.FactTable</text>
  <path class="flow" d="M461,288 L461,306"/>
  <rect x="62" y="445" width="798" height="113" rx="12" fill="#eff6ff" stroke="#3b82f6" stroke-width="1.8"/>
  <text class="h" x="82" y="477">L2 · RDF assertion graph</text>
  <text class="t" x="82" y="500">Projection into rdflib with stable IRIs (tr: schema, res: instances,</text>
  <text class="t" x="82" y="519">ev: evidence) inside one named graph per analysis cycle.</text>
  <text class="m" x="82" y="546">graph.rdf_graph · graph.rdf_adapter</text>
  <path class="flow" d="M461,423 L461,441"/>
  <rect x="62" y="580" width="798" height="132" rx="12" fill="#ecfeff" stroke="#06b6d4" stroke-width="1.8"/>
  <text class="h" x="82" y="612">L3 · RDFS / OWL 2 RL closure   (OPEN WORLD)</text>
  <text class="t" x="82" y="635">trading_core.ttl class and property hierarchy plus trading_rules.ttl</text>
  <text class="t" x="82" y="654">owl:hasValue restrictions materialise semantic labels such as</text>
  <text class="t" x="82" y="673">BuyCandidate, TradeForbiddenAsset, SyntheticDataAsset.</text>
  <text class="m" x="82" y="700">graph.owl_reasoner · graph.semantic_materializer  —  never permits or blocks a trade</text>
  <path class="flow" d="M461,558 L461,576"/>
  <rect x="62" y="734" width="798" height="113" rx="12" fill="#fefce8" stroke="#eab308" stroke-width="1.8"/>
  <text class="h" x="82" y="766">L4 · SHACL validation   (CLOSED WORLD)</text>
  <text class="t" x="82" y="789">trading_shapes.ttl checks required fields, positive prices, stale and</text>
  <text class="t" x="82" y="808">synthetic data, order structure, final-order preconditions.</text>
  <text class="m" x="82" y="835">graph.shacl_validator  —  mode=live blocks, mode=paper warns</text>
  <path class="flow" d="M461,712 L461,730"/>
  <rect x="62" y="869" width="798" height="132" rx="12" fill="#fef2f2" stroke="#ef4444" stroke-width="1.8"/>
  <text class="h" x="82" y="901">L5 · Operational strategy gate   (TIME-VALID, FAIL-CLOSED)</text>
  <text class="t" x="82" y="924">OperationalFact(value, observed_at, valid_from, valid_until, source, confidence)</text>
  <text class="t" x="82" y="943">→ allowed strategy IDs, hard-block reasons, soft compatibility scores,</text>
  <text class="t" x="82" y="962">source-linked explanation paths. A missing required fact is a hard block.</text>
  <text class="m" x="82" y="989">app.ontology.operational_gate.ClosedWorldOntologyGate</text>
  <path class="flow" d="M461,847 L461,865"/>
  <rect x="62" y="1023" width="798" height="132" rx="12" fill="#f5f3ff" stroke="#8b5cf6" stroke-width="1.8"/>
  <text class="h" x="82" y="1055">L6 · Macro → micro reasoning</text>
  <text class="t" x="82" y="1078">MacroMarketReasoner: regime, risk level, sector ranking, candidate symbols,</text>
  <text class="t" x="82" y="1097">allowed / blocked strategies. Bounded-parallel MicroSymbolReasoner per candidate:</text>
  <text class="t" x="82" y="1116">entry, exit, execution quality, expected net return. Arbiter ranks SELL before BUY.</text>
  <text class="m" x="82" y="1143">graph.macro_reasoner · micro_reasoner · ontology_coordinator · global_trade_arbiter</text>
  <path class="flow" d="M461,1001 L461,1019"/>
  <rect x="974" y="156" width="604" height="132" rx="12" fill="#f5f3ff" stroke="#8b5cf6" stroke-width="1.8"/>
  <text class="h" x="994" y="188">G0 · Fixed-shape tensor projection</text>
  <text class="t" x="994" y="211">X [B,T,N,F] · A [B,T,R,N,N] · node_mask [B,T,N] · strategy_mask [B,N,S]</text>
  <text class="t" x="994" y="230">Topology is built on CPU and stays outside the model graph.</text>
  <text class="t" x="994" y="249">Shadow checkpoint B1 T1 N1 F12 R1 S7 · benchmark B1 T4 N16 F12 R4 S7</text>
  <text class="m" x="994" y="276">app.npu.tensor_schemas · routing.shadow_intelligence</text>
  <rect x="974" y="310" width="604" height="113" rx="12" fill="#f5f3ff" stroke="#8b5cf6" stroke-width="1.8"/>
  <text class="h" x="994" y="342">G1 · Relational message passing (R-GCN)</text>
  <text class="t" x="994" y="365">H = ReLU( X · W_self  +  Σ_r  A_r · X · W_r ),  then H ×= node_mask</text>
  <text class="t" x="994" y="384">Dense MatMul / Add / ReLU only. No scatter, gather-by-index or sparse ops.</text>
  <text class="m" x="994" y="411">models.strategy_utility.rgcn.FixedShapeStrategyUtilityModel</text>
  <path class="flow" d="M1276,288 L1276,306"/>
  <rect x="974" y="445" width="604" height="99" rx="12" fill="#f5f3ff" stroke="#8b5cf6" stroke-width="1.8"/>
  <text class="h" x="994" y="477">G2 · Causal temporal pooling</text>
  <text class="t" x="994" y="500">Z = Σ_t  w_t · H_t  over observations at or before the decision snapshot.</text>
  <text class="t" x="994" y="519">No future padding, no look-ahead, fixed T.</text>
  <path class="flow" d="M1276,423 L1276,441"/>
  <rect x="974" y="566" width="604" height="113" rx="12" fill="#f5f3ff" stroke="#8b5cf6" stroke-width="1.8"/>
  <text class="h" x="994" y="598">G3 · Multi-task heads per stock × strategy</text>
  <text class="t" x="994" y="621">p_success · gross_bps · cost_bps · MAE · MFE · p_fill · holding_s ·</text>
  <text class="t" x="994" y="640">aleatoric uncertainty, plus a separate NoTrade head.</text>
  <text class="m" x="994" y="667">8 head channels × 7 strategies</text>
  <path class="flow" d="M1276,544 L1276,562"/>
  <rect x="974" y="701" width="604" height="132" rx="12" fill="#fff7ed" stroke="#f97316" stroke-width="1.8"/>
  <text class="h" x="994" y="733">G4 · Cost-adjusted utility</text>
  <text class="t" x="994" y="756">net = gross_bps − cost_bps</text>
  <text class="t" x="994" y="775">U = p_success·net − (1−p_success)·MAE − uncertainty + 0.1·p_fill·MFE</text>
  <text class="t" x="994" y="794">U = −∞ wherever the ontology mask or the node mask is 0.</text>
  <text class="m" x="994" y="821">rgcn.output_from_raw</text>
  <path class="flow" d="M1276,679 L1276,697"/>
  <rect x="974" y="855" width="604" height="113" rx="12" fill="#fef2f2" stroke="#ef4444" stroke-width="1.8"/>
  <text class="h" x="994" y="887">G5 · Strategy router</text>
  <text class="t" x="994" y="910">argmax U over admissible strategies, otherwise a first-class NO_TRADE.</text>
  <text class="t" x="994" y="929">Emits StrategyUtilityEvidence with the ontology snapshot id and explanations.</text>
  <text class="m" x="994" y="956">routing.strategy_router.StrategyRouter</text>
  <path class="flow" d="M1276,833 L1276,851"/>
  <rect x="974" y="990" width="604" height="132" rx="12" fill="#f1f5f9" stroke="#94a3b8" stroke-width="1.8"/>
  <text class="h" x="994" y="1022">Runtime and promotion status</text>
  <text class="t" x="994" y="1045">OpenVINO CPU is the verified runtime. NPU compiles without fallback but</text>
  <text class="t" x="994" y="1064">measured slower (p50 1.14 ms vs 0.33 ms) and outside the utility tolerance.</text>
  <text class="t" x="994" y="1083">Shadow inference only: rgcn_shadow.npz is scope-limited, never order authority.</text>
  <text class="m" x="994" y="1110">models.strategy_utility.openvino_runtime · routing.shadow_comparison</text>
  <path class="flow" d="M1276,968 L1276,986"/>
  <path class="dash" d="M860,893 C987,893 847,196 974,196"/>
  <path class="dash" d="M860,977 C987,977 847,741 974,741"/>
  <text class="m" x="52" y="102" text-anchor="start">Dashed: the L5 operational gate is the only ontology output the model consumes — allowed strategy IDs become strategy_mask, and a hard block forces utility = −∞.</text>
  <rect class="band" x="38" y="1197" width="1564" height="128" rx="18"/>
  <text class="lane" x="62" y="1223">DETERMINISTIC AUTHORITY</text>
  <text class="lane" x="1578" y="1223" text-anchor="end">the only path to a real order</text>
  <rect x="62" y="1241" width="364" height="62" rx="12" fill="#fee2e2" stroke="#dc2626" stroke-width="1.8"/>
  <text class="h" x="80" y="1267" font-size="14">TradingCostEngine + ProfitabilityGate</text>
  <text class="m" x="80" y="1289">cost.profitability_gate</text>
  <rect x="450" y="1241" width="364" height="62" rx="12" fill="#fee2e2" stroke="#dc2626" stroke-width="1.8"/>
  <text class="h" x="468" y="1267" font-size="14">DynamicExitPolicy + PositionSizer</text>
  <text class="m" x="468" y="1289">trading.dynamic_exit_policy · risk.position_sizing</text>
  <path class="flow" d="M426,1272 L446,1272"/>
  <rect x="838" y="1241" width="364" height="62" rx="12" fill="#fee2e2" stroke="#dc2626" stroke-width="1.8"/>
  <text class="h" x="856" y="1267" font-size="14">PrincipalProtection + RiskManager</text>
  <text class="m" x="856" y="1289">risk.principal_protection · risk.manager</text>
  <path class="flow" d="M814,1272 L834,1272"/>
  <rect x="1226" y="1241" width="364" height="62" rx="12" fill="#fee2e2" stroke="#dc2626" stroke-width="1.8"/>
  <text class="h" x="1244" y="1267" font-size="14">LiveExecutionCoordinator → KIS limit order</text>
  <text class="m" x="1244" y="1289">execution.live_execution_coordinator</text>
  <path class="flow" d="M1202,1272 L1222,1272"/>
  <path class="flow" d="M461,1155 L461,1235"/>
  <path class="flow" d="M1276,1122 L1276,1235"/>
  <text class="note" x="52" y="1355" text-anchor="start">Safety invariant: no ontology, GNN, NPU, ML or LLM output can create a FinalOrder. They classify, rank, explain and mask; the deterministic gates decide and submit.</text>
</svg>
