<svg xmlns="http://www.w3.org/2000/svg" viewBox="0 0 1020 560" font-family="Segoe UI, Helvetica, Arial, sans-serif">
  <defs>
    <marker id="a4" markerWidth="10" markerHeight="10" refX="8" refY="3" orient="auto" markerUnits="strokeWidth">
      <path d="M0,0 L8,3 L0,6 Z" fill="#475569"/>
    </marker>
    <style>
      .h{fill:#0f172a;font-size:19px;font-weight:700;}
      .grp{fill:#0f172a;font-size:14px;font-weight:700;}
      .m{fill:#0f172a;font-size:12px;font-weight:600;text-anchor:middle;}
      .s{fill:#475569;font-size:10.5px;text-anchor:middle;}
      .f{stroke:#475569;stroke-width:1.8;fill:none;marker-end:url(#a4);}
    </style>
  </defs>
  <rect x="0" y="0" width="1020" height="560" fill="#f8fafc"/>
  <text x="40" y="40" class="h">Ontology Framework — Components &amp; Data Flow</text>

  <!-- ontology assets -->
  <rect x="40" y="70" width="300" height="150" rx="12" fill="#eef2ff" stroke="#6366f1"/>
  <text x="56" y="96" class="grp">src/app/ontology/  (Turtle)</text>
  <rect x="60" y="110" width="260" height="30" rx="6" fill="#fff" stroke="#c7d2fe"/><text x="190" y="130" class="m">trading_core.ttl</text>
  <rect x="60" y="146" width="260" height="30" rx="6" fill="#fff" stroke="#c7d2fe"/><text x="190" y="166" class="m">trading_rules.ttl  (OWL RL axioms)</text>
  <rect x="60" y="182" width="260" height="30" rx="6" fill="#fff" stroke="#c7d2fe"/><text x="190" y="202" class="m">trading_shapes.ttl  (SHACL)</text>

  <!-- python modules -->
  <rect x="40" y="250" width="300" height="270" rx="12" fill="#fffbeb" stroke="#f59e0b"/>
  <text x="56" y="276" class="grp">src/app/graph/  (Python)</text>
  <rect x="60" y="290" width="260" height="30" rx="6" fill="#fff" stroke="#fde68a"/><text x="190" y="310" class="m">rdf_graph.py  ·  rdf_adapter.py</text>
  <rect x="60" y="326" width="260" height="30" rx="6" fill="#fff" stroke="#fde68a"/><text x="190" y="346" class="m">owl_reasoner.py</text>
  <rect x="60" y="362" width="260" height="30" rx="6" fill="#fff" stroke="#fde68a"/><text x="190" y="382" class="m">semantic_materializer.py</text>
  <rect x="60" y="398" width="260" height="30" rx="6" fill="#fff" stroke="#fde68a"/><text x="190" y="418" class="m">shacl_validator.py</text>
  <rect x="60" y="434" width="260" height="30" rx="6" fill="#fff" stroke="#fde68a"/><text x="190" y="454" class="m">ontology_layer.py  (orchestration)</text>
  <rect x="60" y="470" width="260" height="30" rx="6" fill="#fff" stroke="#fde68a"/><text x="190" y="490" class="m">reasoner.py → SemanticPolicyScorer</text>

  <!-- flow center -->
  <rect x="400" y="120" width="220" height="46" rx="10" fill="#f0fdfa" stroke="#14b8a6"/><text x="510" y="148" class="m">RDF assertion graph</text>
  <rect x="400" y="196" width="220" height="46" rx="10" fill="#f5f3ff" stroke="#7c3aed"/><text x="510" y="224" class="m">OWL RL materialization</text>
  <rect x="400" y="272" width="220" height="46" rx="10" fill="#eff6ff" stroke="#0ea5e9"/><text x="510" y="300" class="m">SHACL validation</text>
  <rect x="400" y="348" width="220" height="46" rx="10" fill="#fffbeb" stroke="#f59e0b"/><text x="510" y="376" class="m">Policy scoring (+ inferred)</text>
  <rect x="400" y="424" width="220" height="46" rx="10" fill="#fef2f2" stroke="#dc2626"/><text x="510" y="452" class="m">RiskManager (final gate)</text>
  <path class="f" d="M510,166 L510,194"/>
  <path class="f" d="M510,242 L510,270"/>
  <path class="f" d="M510,318 L510,346"/>
  <path class="f" d="M510,394 L510,422"/>
  <path class="f" d="M340,150 L398,143"/>
  <path class="f" d="M340,380 L398,371"/>

  <!-- outputs -->
  <rect x="680" y="120" width="300" height="400" rx="12" fill="#ffffff" stroke="#cbd5e1"/>
  <text x="696" y="146" class="grp">Outputs</text>
  <rect x="700" y="160" width="260" height="44" rx="8" fill="#f8fafc" stroke="#e2e8f0"/><text x="830" y="180" class="m">app/pipeline.py</text><text x="830" y="196" class="s">AnalysisContext.ontology_layer</text>
  <rect x="700" y="216" width="260" height="44" rx="8" fill="#f8fafc" stroke="#e2e8f0"/><text x="830" y="236" class="m">app/web.py</text><text x="830" y="252" class="s">/api/ontology/graph · semantic_layer</text>
  <rect x="700" y="272" width="260" height="44" rx="8" fill="#f8fafc" stroke="#e2e8f0"/><text x="830" y="292" class="m">asserted vs inferred triples</text><text x="830" y="308" class="s">OWL results kept apart from Python</text>
  <rect x="700" y="328" width="260" height="44" rx="8" fill="#f8fafc" stroke="#e2e8f0"/><text x="830" y="348" class="m">SHACL diagnostics + timings</text><text x="830" y="364" class="s">live blocks · paper warns</text>
  <rect x="700" y="384" width="260" height="44" rx="8" fill="#f8fafc" stroke="#e2e8f0"/><text x="830" y="404" class="m">Turtle / JSON-LD export</text>
  <rect x="700" y="440" width="260" height="60" rx="8" fill="#ecfdf5" stroke="#a7f3d0"/><text x="830" y="464" class="m">14 tests</text><text x="830" y="482" class="s">test_ontology_framework.py</text>
  <path class="f" d="M620,300 L698,240"/>
</svg>
